<svg width="1200" height="900" viewBox="0 0 1200 900" fill="none" xmlns="http://www.w3.org/2000/svg">
  <defs>
    <linearGradient id="g1" x1="0" y1="0" x2="0" y2="1">
      <stop offset="0%" stop-color="#F7F1E8"/>
      <stop offset="100%" stop-color="#EEE4D6"/>
    </linearGradient>
    <linearGradient id="g2" x1="0" y1="0" x2="1" y2="1">
      <stop offset="0%" stop-color="#CDBAA4"/>
      <stop offset="100%" stop-color="#9C8366"/>
    </linearGradient>
    <filter id="shadow" x="-20%" y="-20%" width="140%" height="160%" color-interpolation-filters="sRGB">
      <feDropShadow dx="0" dy="24" stdDeviation="32" flood-color="#000" flood-opacity="0.18"/>
    </filter>
  </defs>

  <rect width="1200" height="900" fill="#F2EADF"/>
  <rect y="650" width="1200" height="250" fill="#E9DFD1"/>

  <g filter="url(#shadow)">
    <rect x="300" y="200" width="600" height="420" rx="24" fill="url(#g1)" stroke="#E6DFD5" stroke-width="3"/>
    <rect x="300" y="200" width="600" height="72" rx="24" fill="#EFE6DA"/>
    <rect x="300" y="538" width="600" height="40" fill="url(#g2)"/>

    <text x="600" y="320" text-anchor="middle" font-family="ui-sans-serif, system-ui, -apple-system, Segoe UI, Roboto, Helvetica, Arial" font-size="64" font-weight="700" fill="#3B3B3B">SMART BITE</text>
    <text x="600" y="360" text-anchor="middle" font-family="ui-sans-serif, system-ui" font-size="20" fill="#6B6B6B" letter-spacing="2">FREEZE · DRIED · NATURAL</text>

    <g transform="translate(600 440)">
      <circle r="70" fill="#D7E7D8"/>
      <g transform="translate(0,0)">
        <path d="M0 -34 C 18 -34 34 -18 34 0 C 34 18 18 34 0 34 C -18 34 -34 18 -34 0 C -34 -18 -18 -34 0 -34 Z" fill="#BFE0C1"/>
        <path d="M0 -24 V 26" stroke="#355E3B" stroke-width="5" stroke-linecap="round"/>
        <path d="M0 -6 C -10 -10 -22 -10 -30 2" stroke="#355E3B" stroke-width="5" stroke-linecap="round" fill="none"/>
        <path d="M0 6 C 10 10 22 10 30 -2" stroke="#355E3B" stroke-width="5" stroke-linecap="round" fill="none"/>
      </g>
    </g>

    <text x="600" y="600" text-anchor="middle" font-family="ui-sans-serif, system-ui" font-size="28" font-weight="700" fill="#3B3B3B">DISCOVERY BOX</text>
  </g>
</svg>
